<svg width="1024" height="1024" viewBox="0 0 1024 1024" fill="none" xmlns="http://www.w3.org/2000/svg">
<g clip-path="url(#clip0_5_2)">
<mask id="mask0_5_2" style="mask-type:luminance" maskUnits="userSpaceOnUse" x="0" y="0" width="1024" height="1024">
<path d="M1024 0H0V1024H1024V0Z" fill="white"/>
</mask>
<g mask="url(#mask0_5_2)">
<path d="M957.5 768L514 1024V496L957.5 256V768Z" fill="url(#paint0_linear_5_2)" stroke="black"/>
<path d="M514.5 0L71 256L514.5 496L958 256L514.5 0Z" fill="url(#paint1_linear_5_2)"/>
<path d="M514.5 496V1024L71 768.083V768V256L514.5 496Z" fill="url(#paint2_linear_5_2)"/>
</g>
<g filter="url(#filter0_d_5_2)">
<path d="M617.079 860.467L629.163 853.489L629.163 867.443L617.079 874.42L617.079 860.467ZM617.08 846.513L629.164 839.536L629.163 853.489L617.079 860.467L617.08 846.513ZM629.164 839.536L641.248 832.559L641.247 846.512L629.163 853.489L629.164 839.536ZM641.248 818.605L653.332 811.628L653.331 825.582L641.248 832.559L641.248 818.605ZM641.249 804.652L653.332 797.675L653.332 811.628L641.248 818.605L641.249 804.652ZM653.332 797.675L665.416 790.697L665.416 804.651L653.332 811.628L653.332 797.675ZM689.584 776.743L701.668 769.766L701.667 783.719L689.583 790.697L689.584 776.743ZM677.501 769.767L689.584 762.79L689.584 776.743L677.5 783.72L677.501 769.767ZM677.501 755.813L689.585 748.836L689.584 762.79L677.501 769.767L677.501 755.813ZM689.585 748.836L701.669 741.859L701.668 755.812L689.584 762.79L689.585 748.836ZM689.584 762.79L701.668 755.812L701.668 769.766L689.584 776.743L689.584 762.79ZM713.752 748.835L725.836 741.858L725.835 755.811L713.752 762.789L713.752 748.835ZM713.752 762.789L725.835 755.811L725.835 769.765L713.751 776.742L713.752 762.789ZM701.668 769.766L713.752 762.789L713.751 776.742L701.667 783.719L701.668 769.766ZM701.668 755.812L713.752 748.835L713.752 762.789L701.668 769.766L701.668 755.812ZM737.919 748.834L750.003 741.857L750.002 755.81L737.919 762.788L737.919 748.834ZM713.751 776.742L725.835 769.765L725.834 783.718L713.75 790.696L713.751 776.742ZM701.667 783.719L713.751 776.742L713.75 790.696L701.667 797.673L701.667 783.719ZM713.75 790.696L725.834 783.718L725.834 797.672L713.75 804.649L713.75 790.696ZM725.834 783.718L737.918 776.741L737.918 790.695L725.834 797.672L725.834 783.718ZM737.918 776.741L750.002 769.764L750.001 783.717L737.918 790.695L737.918 776.741ZM737.918 790.695L750.001 783.717L750.001 797.671L737.917 804.648L737.918 790.695ZM725.834 797.672L737.918 790.695L737.917 804.648L725.833 811.625L725.834 797.672ZM725.835 769.765L737.919 762.788L737.918 776.741L725.834 783.718L725.835 769.765ZM737.919 762.788L750.002 755.81L750.002 769.764L737.918 776.741L737.919 762.788ZM834.59 679.063L846.674 672.086L846.673 686.039L834.59 693.017L834.59 679.063ZM834.591 665.11L846.675 658.132L846.674 672.086L834.59 679.063L834.591 665.11ZM846.675 658.132L858.758 651.155L858.758 665.109L846.674 672.086L846.675 658.132ZM858.759 637.202L870.843 630.225L870.842 644.178L858.758 651.155L858.759 637.202ZM858.759 623.248L870.843 616.271L870.843 630.225L858.759 637.202L858.759 623.248ZM810.424 665.111L822.507 658.133L822.507 672.087L810.423 679.064L810.424 665.111ZM822.507 658.133L834.591 651.156L834.591 665.11L822.507 672.087L822.507 658.133ZM846.676 616.272L858.76 609.295L858.759 623.248L846.676 630.225L846.676 616.272ZM846.677 602.318L858.76 595.341L858.76 609.295L846.676 616.272L846.677 602.318ZM834.593 609.296L846.677 602.318L846.676 616.272L834.592 623.249L834.593 609.296ZM822.51 602.319L834.593 595.342L834.593 609.296L822.509 616.273L822.51 602.319ZM822.51 588.366L834.594 581.389L834.593 595.342L822.51 602.319L822.51 588.366ZM810.426 595.343L822.51 588.366L822.51 602.319L810.426 609.297L810.426 595.343ZM858.76 609.295L870.844 602.318L870.843 616.271L858.759 623.248L858.76 609.295ZM858.76 595.341L870.844 588.364L870.844 602.318L858.76 609.295L858.76 595.341ZM834.593 595.342L846.677 588.365L846.677 602.318L834.593 609.296L834.593 595.342ZM834.594 581.389L846.678 574.411L846.677 588.365L834.593 595.342L834.594 581.389ZM846.677 588.365L858.761 581.388L858.76 595.341L846.677 602.318L846.677 588.365ZM810.427 581.39L822.511 574.412L822.51 588.366L810.426 595.343L810.427 581.39ZM750.009 588.369L762.093 581.391L762.092 595.345L750.008 602.322L750.009 588.369ZM762.093 581.391L774.176 574.414L774.176 588.368L762.092 595.345L762.093 581.391ZM798.343 588.367L810.427 581.39L810.426 595.343L798.342 602.32L798.343 588.367ZM786.26 581.391L798.344 574.413L798.343 588.367L786.259 595.344L786.26 581.391ZM786.259 595.344L798.343 588.367L798.342 602.32L786.259 609.297L786.259 595.344ZM774.176 588.368L786.26 581.391L786.259 595.344L774.175 602.321L774.176 588.368ZM762.092 595.345L774.176 588.368L774.175 602.321L762.092 609.298L762.092 595.345ZM774.175 602.321L786.259 595.344L786.259 609.297L774.175 616.275L774.175 602.321ZM798.34 658.134L810.424 651.157L810.424 665.111L798.34 672.088L798.34 658.134ZM786.257 665.111L798.34 658.134L798.34 672.088L786.256 679.065L786.257 665.111ZM774.173 672.089L786.257 665.111L786.256 679.065L774.172 686.042L774.173 672.089ZM762.089 665.112L774.173 658.135L774.173 672.089L762.089 679.066L762.089 665.112ZM774.173 658.135L786.257 651.158L786.257 665.111L774.173 672.089L774.173 658.135ZM750.006 658.136L762.09 651.159L762.089 665.112L750.006 672.09L750.006 658.136ZM737.922 665.113L750.006 658.136L750.006 672.09L737.922 679.067L737.922 665.113ZM750.006 672.09L762.089 665.112L762.089 679.066L750.005 686.043L750.006 672.09ZM725.839 672.09L737.922 665.113L737.922 679.067L725.838 686.044L725.839 672.09ZM725.839 658.137L737.923 651.16L737.922 665.113L725.839 672.09L725.839 658.137ZM665.424 595.349L677.507 588.371L677.507 602.325L665.423 609.302L665.424 595.349ZM677.509 560.464L689.592 553.487L689.592 567.441L677.508 574.418L677.509 560.464ZM701.678 504.649L713.762 497.672L713.761 511.626L701.677 518.603L701.678 504.649ZM713.762 497.672L725.845 490.695L725.845 504.649L713.761 511.626L713.762 497.672ZM737.925 581.392L750.009 574.415L750.009 588.369L737.925 595.346L737.925 581.392ZM798.347 490.692L810.43 483.715L810.43 497.669L798.346 504.646L798.347 490.692ZM798.347 476.739L810.431 469.762L810.43 483.715L798.347 490.692L798.347 476.739ZM810.43 483.715L822.514 476.738L822.514 490.691L810.43 497.669L810.43 483.715ZM798.346 504.646L810.43 497.669L810.429 511.622L798.346 518.599L798.346 504.646ZM810.43 497.669L822.514 490.691L822.513 504.645L810.429 511.622L810.43 497.669ZM834.599 455.807L846.682 448.83L846.682 462.784L834.598 469.761L834.599 455.807ZM822.514 476.738L834.598 469.761L834.598 483.714L822.514 490.691L822.514 476.738ZM786.263 483.716L798.347 476.739L798.347 490.692L786.263 497.67L786.263 483.716ZM774.18 490.693L786.263 483.716L786.263 497.67L774.179 504.647L774.18 490.693ZM774.179 504.647L786.263 497.67L786.262 511.623L774.179 518.6L774.179 504.647ZM786.263 497.67L798.347 490.692L798.346 504.646L786.262 511.623L786.263 497.67ZM762.096 497.67L774.18 490.693L774.179 504.647L762.095 511.624L762.096 497.67ZM786.264 469.763L798.348 462.785L798.347 476.739L786.263 483.716L786.264 469.763ZM774.181 462.786L786.264 455.809L786.264 469.763L774.18 476.74L774.181 462.786ZM762.097 469.763L774.181 462.786L774.18 476.74L762.096 483.717L762.097 469.763ZM750.013 476.741L762.097 469.763L762.096 483.717L750.012 490.694L750.013 476.741ZM725.845 504.649L737.929 497.671L737.928 511.625L725.844 518.602L725.845 504.649ZM737.929 483.718L750.013 476.741L750.012 490.694L737.929 497.671L737.929 483.718ZM725.845 490.695L737.929 483.718L737.929 497.671L725.845 504.649L725.845 490.695ZM762.096 483.717L774.18 476.74L774.18 490.693L762.096 497.67L762.096 483.717ZM774.18 476.74L786.264 469.763L786.263 483.716L774.18 490.693L774.18 476.74ZM750.012 490.694L762.096 483.717L762.096 497.67L750.012 504.648L750.012 490.694ZM737.929 497.671L750.012 490.694L750.012 504.648L737.928 511.625L737.929 497.671ZM846.683 434.877L858.767 427.899L858.766 441.853L846.682 448.83L846.683 434.877ZM858.767 413.946L870.851 406.969L870.851 420.922L858.767 427.899L858.767 413.946ZM629.164 825.583L641.248 818.605L641.248 832.559L629.164 839.536L629.164 825.583ZM750.014 462.787L762.097 455.81L762.097 469.763L750.013 476.741L750.014 462.787ZM737.93 469.764L750.014 462.787L750.013 476.741L737.929 483.718L737.93 469.764ZM725.846 476.742L737.93 469.764L737.929 483.718L725.845 490.695L725.846 476.742ZM786.262 511.623L798.346 504.646L798.346 518.599L786.262 525.577L786.262 511.623ZM762.086 762.787L774.17 755.81L774.169 769.763L762.085 776.74L762.086 762.787ZM822.507 672.087L834.591 665.11L834.59 679.063L822.506 686.04L822.507 672.087ZM762.085 776.74L774.169 769.763L774.169 783.717L762.085 790.694L762.085 776.74ZM774.169 769.763L786.253 762.786L786.252 776.739L774.169 783.717L774.169 769.763ZM786.253 748.832L798.337 741.855L798.337 755.809L786.253 762.786L786.253 748.832ZM774.17 755.81L786.253 748.832L786.253 762.786L774.169 769.763L774.17 755.81ZM822.506 699.994L834.59 693.017L834.589 706.97L822.505 713.947L822.506 699.994ZM653.333 783.721L665.417 776.744L665.416 790.697L653.332 797.675L653.333 783.721ZM822.506 686.04L834.59 679.063L834.59 693.017L822.506 699.994L822.506 686.04ZM641.255 637.21L653.339 630.233L653.338 644.186L641.254 651.163L641.255 637.21ZM641.256 623.256L653.339 616.279L653.339 630.233L641.255 637.21L641.256 623.256ZM665.425 567.442L677.509 560.464L677.508 574.418L665.424 581.395L665.425 567.442ZM677.509 546.511L689.593 539.534L689.592 553.487L677.509 560.464L677.509 546.511ZM677.51 532.557L689.593 525.58L689.593 539.534L677.509 546.511L677.51 532.557ZM641.256 609.303L653.34 602.326L653.339 616.279L641.256 623.256L641.256 609.303ZM641.257 595.349L653.34 588.372L653.34 602.326L641.256 609.303L641.257 595.349ZM653.341 574.419L665.425 567.442L665.424 581.395L653.34 588.372L653.341 574.419ZM653.341 560.465L665.425 553.488L665.425 567.442L653.341 574.419L653.341 560.465ZM665.425 553.488L677.509 546.511L677.509 560.464L665.425 567.442L665.425 553.488ZM665.426 539.535L677.51 532.557L677.509 546.511L665.425 553.488L665.426 539.535ZM677.51 518.604L689.594 511.627L689.593 525.58L677.51 532.557L677.51 518.604ZM689.594 511.627L701.678 504.649L701.677 518.603L689.593 525.58L689.594 511.627ZM689.594 497.673L701.678 490.696L701.678 504.649L689.594 511.627L689.594 497.673ZM713.762 483.719L725.846 476.742L725.845 490.695L713.762 497.672L713.762 483.719ZM701.678 490.696L713.762 483.719L713.762 497.672L701.678 504.649L701.678 490.696ZM653.342 546.512L665.426 539.535L665.425 553.488L653.341 560.465L653.342 546.512ZM665.426 525.581L677.51 518.604L677.51 532.557L665.426 539.535L665.426 525.581ZM798.348 462.785L810.432 455.808L810.431 469.762L798.347 476.739L798.348 462.785ZM677.5 783.72L689.584 776.743L689.583 790.697L677.5 797.674L677.5 783.72ZM677.508 574.418L689.592 567.441L689.591 581.394L677.507 588.371L677.508 574.418ZM701.675 588.37L713.758 581.393L713.758 595.347L701.674 602.324L701.675 588.37ZM713.758 581.393L725.842 574.416L725.842 588.37L713.758 595.347L713.758 581.393ZM737.925 595.346L750.009 588.369L750.008 602.322L737.924 609.299L737.925 595.346ZM762.092 609.298L774.175 602.321L774.175 616.275L762.091 623.252L762.092 609.298ZM810.426 609.297L822.51 602.319L822.509 616.273L810.425 623.25L810.426 609.297ZM798.34 672.088L810.424 665.111L810.423 679.064L798.339 686.041L798.34 672.088ZM786.253 762.786L798.337 755.809L798.336 769.762L786.252 776.739L786.253 762.786ZM798.337 741.855L810.421 734.878L810.42 748.831L798.337 755.809L798.337 741.855ZM665.417 762.79L677.501 755.813L677.501 769.767L665.417 776.744L665.417 762.79ZM665.416 790.697L677.5 783.72L677.5 797.674L665.416 804.651L665.416 790.697ZM665.417 776.744L677.501 769.767L677.5 783.72L665.416 790.697L665.417 776.744ZM750.008 616.276L762.092 609.298L762.091 623.252L750.007 630.229L750.008 616.276ZM750.008 602.322L762.092 595.345L762.092 609.298L750.008 616.276L750.008 602.322ZM689.583 790.697L701.667 783.719L701.667 797.673L689.583 804.65L689.583 790.697ZM677.5 797.674L689.583 790.697L689.583 804.65L677.499 811.627L677.5 797.674ZM701.667 797.673L713.75 790.696L713.75 804.649L701.666 811.626L701.667 797.673ZM822.515 462.784L834.599 455.807L834.598 469.761L822.514 476.738L822.515 462.784ZM858.768 399.992L870.852 393.015L870.851 406.969L858.767 413.946L858.768 399.992ZM846.683 420.923L858.767 413.946L858.767 427.899L846.683 434.877L846.683 420.923ZM834.599 441.854L846.683 434.877L846.682 448.83L834.599 455.807L834.599 441.854ZM750.012 504.648L762.096 497.67L762.095 511.624L750.011 518.601L750.012 504.648ZM665.424 581.395L677.508 574.418L677.507 588.371L665.424 595.349L665.424 581.395ZM653.34 588.372L665.424 581.395L665.424 595.349L653.34 602.326L653.34 588.372ZM677.507 588.371L689.591 581.394L689.591 595.348L677.507 602.325L677.507 588.371ZM677.507 602.325L689.591 595.348L689.59 609.301L677.506 616.278L677.507 602.325ZM689.591 595.348L701.675 588.37L701.674 602.324L689.59 609.301L689.591 595.348ZM689.591 581.394L701.675 574.417L701.675 588.37L689.591 595.348L689.591 581.394ZM701.674 602.324L713.758 595.347L713.757 609.3L701.674 616.277L701.674 602.324ZM725.841 602.323L737.925 595.346L737.924 609.299L725.841 616.277L725.841 602.323ZM713.758 595.347L725.842 588.37L725.841 602.323L713.757 609.3L713.758 595.347ZM725.842 588.37L737.925 581.392L737.925 595.346L725.841 602.323L725.842 588.37ZM774.175 616.275L786.259 609.297L786.258 623.251L774.174 630.228L774.175 616.275ZM786.259 609.297L798.342 602.32L798.342 616.274L786.258 623.251L786.259 609.297ZM798.342 616.274L810.426 609.297L810.425 623.25L798.341 630.227L798.342 616.274ZM798.342 602.32L810.426 595.343L810.426 609.297L798.342 616.274L798.342 602.32ZM822.509 616.273L834.593 609.296L834.592 623.249L822.508 630.226L822.509 616.273ZM750.002 769.764L762.086 762.787L762.085 776.74L750.001 783.717L750.002 769.764ZM750.001 783.717L762.085 776.74L762.085 790.694L750.001 797.671L750.001 783.717ZM810.421 734.878L822.505 727.901L822.504 741.854L810.42 748.831L810.421 734.878ZM822.505 713.947L834.589 706.97L834.589 720.924L822.505 727.901L822.505 713.947ZM834.59 693.017L846.673 686.039L846.673 699.993L834.589 706.97L834.59 693.017ZM846.674 672.086L858.758 665.109L858.757 679.062L846.673 686.039L846.674 672.086ZM858.758 651.155L870.842 644.178L870.842 658.132L858.758 665.109L858.758 651.155ZM846.673 686.039L858.757 679.062L858.757 693.016L846.673 699.993L846.673 686.039ZM834.589 706.97L846.673 699.993L846.672 713.946L834.589 720.924L834.589 706.97ZM822.505 727.901L834.589 720.924L834.588 734.877L822.504 741.854L822.505 727.901ZM641.257 581.396L653.341 574.419L653.34 588.372L641.257 595.349L641.257 581.396ZM798.337 755.809L810.42 748.831L810.42 762.785L798.336 769.762L798.337 755.809ZM701.672 658.138L713.756 651.161L713.755 665.114L701.671 672.091L701.672 658.138ZM677.505 658.139L689.589 651.162L689.588 665.115L677.504 672.092L677.505 658.139ZM641.254 651.163L653.338 644.186L653.338 658.14L641.254 665.117L641.254 651.163ZM653.34 602.326L665.424 595.349L665.423 609.302L653.339 616.279L653.34 602.326ZM653.339 616.279L665.423 609.302L665.423 623.256L653.339 630.233L653.339 616.279ZM665.423 609.302L677.507 602.325L677.506 616.278L665.423 623.256L665.423 609.302ZM677.506 616.278L689.59 609.301L689.59 623.255L677.506 630.232L677.506 616.278ZM689.59 609.301L701.674 602.324L701.674 616.277L689.59 623.255L689.59 609.301ZM737.924 609.299L750.008 602.322L750.008 616.276L737.924 623.253L737.924 609.299ZM725.841 616.277L737.924 609.299L737.924 623.253L725.84 630.23L725.841 616.277ZM713.757 609.3L725.841 602.323L725.841 616.277L713.757 623.254L713.757 609.3ZM701.674 616.277L713.757 609.3L713.757 623.254L701.673 630.231L701.674 616.277ZM653.338 658.14L665.422 651.163L665.421 665.116L653.337 672.093L653.338 658.14ZM665.416 804.651L677.5 797.674L677.499 811.627L665.415 818.604L665.416 804.651ZM689.583 804.65L701.667 797.673L701.666 811.626L689.582 818.603L689.583 804.65ZM713.75 804.649L725.834 797.672L725.833 811.625L713.749 818.603L713.75 804.649ZM653.332 811.628L665.416 804.651L665.415 818.604L653.331 825.582L653.332 811.628ZM677.499 811.627L689.583 804.65L689.582 818.603L677.499 825.581L677.499 811.627ZM701.666 811.626L713.75 804.649L713.749 818.603L701.666 825.58L701.666 811.626ZM701.669 741.859L713.753 734.882L713.752 748.835L701.668 755.812L701.669 741.859ZM725.836 741.858L737.92 734.881L737.919 748.834L725.835 755.811L725.836 741.858ZM725.835 755.811L737.919 748.834L737.919 762.788L725.835 769.765L725.835 755.811ZM750.002 755.81L762.086 748.833L762.086 762.787L750.002 769.764L750.002 755.81ZM750.003 741.857L762.087 734.88L762.086 748.833L750.002 755.81L750.003 741.857ZM762.086 748.833L774.17 741.856L774.17 755.81L762.086 762.787L762.086 748.833ZM774.17 741.856L786.254 734.879L786.253 748.832L774.17 755.81L774.17 741.856ZM713.755 665.114L725.839 658.137L725.839 672.09L713.755 679.068L713.755 665.114ZM701.671 672.091L713.755 665.114L713.755 679.068L701.671 686.045L701.671 672.091ZM677.504 672.092L689.588 665.115L689.588 679.069L677.504 686.046L677.504 672.092ZM689.588 665.115L701.672 658.138L701.671 672.091L689.588 679.069L689.588 665.115ZM665.421 665.116L677.505 658.139L677.504 672.092L665.421 679.07L665.421 665.116ZM653.337 672.093L665.421 665.116L665.421 679.07L653.337 686.047L653.337 672.093ZM641.254 665.117L653.338 658.14L653.337 672.093L641.253 679.07L641.254 665.117ZM762.095 511.624L774.179 504.647L774.179 518.6L762.095 525.577L762.095 511.624ZM737.928 511.625L750.012 504.648L750.011 518.601L737.928 525.578L737.928 511.625ZM713.761 511.626L725.845 504.649L725.844 518.602L713.76 525.579L713.761 511.626ZM689.592 567.441L701.676 560.463L701.675 574.417L689.591 581.394L689.592 567.441ZM701.675 574.417L713.759 567.44L713.758 581.393L701.675 588.37L701.675 574.417ZM725.833 811.625L737.917 804.648L737.917 818.602L725.833 825.579L725.833 811.625ZM737.917 804.648L750.001 797.671L750 811.624L737.917 818.602L737.917 804.648ZM750.001 797.671L762.085 790.694L762.084 804.647L750 811.624L750.001 797.671ZM762.085 790.694L774.169 783.717L774.168 797.67L762.084 804.647L762.085 790.694ZM774.169 783.717L786.252 776.739L786.252 790.693L774.168 797.67L774.169 783.717ZM604.996 867.444L617.079 860.467L617.079 874.42L604.995 881.397L604.996 867.444ZM604.995 881.397L617.079 874.42L617.078 888.374L604.995 895.351L604.995 881.397ZM762.097 455.81L774.181 448.833L774.181 462.786L762.097 469.763L762.097 455.81ZM786.264 455.809L798.348 448.832L798.348 462.785L786.264 469.763L786.264 455.809ZM810.431 469.762L822.515 462.784L822.514 476.738L810.43 483.715L810.431 469.762ZM810.432 455.808L822.515 448.831L822.515 462.784L810.431 469.762L810.432 455.808ZM725.842 574.416L737.926 567.439L737.925 581.392L725.842 588.37L725.842 574.416ZM750.009 574.415L762.093 567.438L762.093 581.391L750.009 588.369L750.009 574.415ZM774.176 574.414L786.26 567.437L786.26 581.391L774.176 588.368L774.176 574.414ZM798.344 574.413L810.427 567.436L810.427 581.39L798.343 588.367L798.344 574.413ZM822.511 574.412L834.594 567.435L834.594 581.389L822.51 588.366L822.511 574.412ZM846.678 574.411L858.762 567.434L858.761 581.388L846.677 588.365L846.678 574.411ZM858.761 581.388L870.845 574.411L870.844 588.364L858.76 595.341L858.761 581.388ZM846.676 630.225L858.759 623.248L858.759 637.202L846.675 644.179L846.676 630.225ZM846.675 644.179L858.759 637.202L858.758 651.155L846.675 658.132L846.675 644.179ZM834.591 651.156L846.675 644.179L846.675 658.132L834.591 665.11L834.591 651.156ZM665.423 623.256L677.506 616.278L677.506 630.232L665.422 637.209L665.423 623.256ZM653.339 630.233L665.423 623.256L665.422 637.209L653.338 644.186L653.339 630.233ZM653.338 644.186L665.422 637.209L665.422 651.163L653.338 658.14L653.338 644.186ZM810.42 748.831L822.504 741.854L822.504 755.808L810.42 762.785L810.42 748.831ZM786.252 776.739L798.336 769.762L798.336 783.716L786.252 790.693L786.252 776.739ZM810.422 720.924L822.505 713.947L822.505 727.901L810.421 734.878L810.422 720.924ZM822.515 448.831L834.599 441.854L834.599 455.807L822.515 462.784L822.515 448.831ZM774.179 518.6L786.262 511.623L786.262 525.577L774.178 532.554L774.179 518.6ZM750.011 518.601L762.095 511.624L762.095 525.577L750.011 532.555L750.011 518.601ZM725.844 518.602L737.928 511.625L737.928 525.578L725.844 532.556L725.844 518.602ZM701.677 518.603L713.761 511.626L713.76 525.579L701.677 532.556L701.677 518.603ZM689.593 525.58L701.677 518.603L701.677 532.556L689.593 539.534L689.593 525.58Z" fill="white"/>
</g>
</g>
<defs>
<filter id="filter0_d_5_2" x="592.995" y="393.015" width="277.857" height="513.336" filterUnits="userSpaceOnUse" color-interpolation-filters="sRGB">
<feFlood flood-opacity="0" result="BackgroundImageFix"/>
<feColorMatrix in="SourceAlpha" type="matrix" values="0 0 0 0 0 0 0 0 0 0 0 0 0 0 0 0 0 0 127 0" result="hardAlpha"/>
<feOffset dx="-8" dy="7"/>
<feGaussianBlur stdDeviation="2"/>
<feComposite in2="hardAlpha" operator="out"/>
<feColorMatrix type="matrix" values="0 0 0 0 0 0 0 0 0 0 0 0 0 0 0 0 0 0 0.25 0"/>
<feBlend mode="normal" in2="BackgroundImageFix" result="effect1_dropShadow_5_2"/>
<feBlend mode="normal" in="SourceGraphic" in2="effect1_dropShadow_5_2" result="shape"/>
</filter>
<linearGradient id="paint0_linear_5_2" x1="514" y1="1024" x2="958" y2="256" gradientUnits="userSpaceOnUse">
<stop offset="0.0240385" stop-color="#55FF00"/>
<stop offset="0.447115" stop-color="#07E9FE"/>
<stop offset="1" stop-color="#2B20FE"/>
</linearGradient>
<linearGradient id="paint1_linear_5_2" x1="71" y1="248" x2="958" y2="248" gradientUnits="userSpaceOnUse">
<stop stop-color="#3E3E3E"/>
<stop offset="1"/>
</linearGradient>
<linearGradient id="paint2_linear_5_2" x1="514" y1="1024" x2="71" y2="256" gradientUnits="userSpaceOnUse">
<stop/>
<stop offset="1" stop-color="#363636"/>
</linearGradient>
<clipPath id="clip0_5_2">
<rect width="1024" height="1024" fill="white"/>
</clipPath>
</defs>
</svg>
